<svg width="96" height="96" viewBox="0 0 96 96" fill="none" xmlns="http://www.w3.org/2000/svg">
<circle cx="48" cy="48" r="48" fill="#C8BEFF"/>
<path d="M59.875 33.625H36.125C35.462 33.625 34.8261 33.8884 34.3572 34.3572C33.8884 34.8261 33.625 35.462 33.625 36.125V59.875C33.625 60.538 33.8884 61.1739 34.3572 61.6428C34.8261 62.1116 35.462 62.375 36.125 62.375H59.875C60.538 62.375 61.1739 62.1116 61.6428 61.6428C62.1116 61.1739 62.375 60.538 62.375 59.875V36.125C62.375 35.462 62.1116 34.8261 61.6428 34.3572C61.1739 33.8884 60.538 33.625 59.875 33.625ZM59.875 48H48V36.125H59.875V48ZM36.125 48H48V59.875H36.125V48Z" fill="black"/>
</svg>
