<svg width="100" height="100" viewBox="0 0 100 100" fill="none" xmlns="http://www.w3.org/2000/svg">
<rect width="100" height="100" rx="26" fill="#FFC895"/>
<path d="M22.397 61V39.1818H35.9268V42.0156H25.6889V48.6634H34.9574V51.4865H25.6889V61H22.397ZM45.5708 61.3303C43.9586 61.3303 42.5701 60.9858 41.4054 60.2969C40.2477 59.6009 39.3528 58.6243 38.7207 57.3672C38.0957 56.103 37.7832 54.6222 37.7832 52.9247C37.7832 51.2486 38.0957 49.7713 38.7207 48.4929C39.3528 47.2145 40.2335 46.2166 41.3627 45.4993C42.4991 44.782 43.8272 44.4233 45.3471 44.4233C46.2704 44.4233 47.1653 44.576 48.0318 44.8814C48.8983 45.1868 49.676 45.6662 50.3649 46.3196C51.0538 46.973 51.5971 47.8217 51.9949 48.8658C52.3926 49.9027 52.5914 51.1634 52.5914 52.6477V53.777H39.5836V51.3906H49.47C49.47 50.5526 49.2995 49.8104 48.9586 49.1641C48.6177 48.5107 48.1383 47.9957 47.5204 47.6193C46.9096 47.2429 46.1923 47.0547 45.3684 47.0547C44.4735 47.0547 43.6923 47.2749 43.0247 47.7152C42.3642 48.1484 41.8528 48.7166 41.4906 49.4197C41.1355 50.1158 40.9579 50.8722 40.9579 51.6889V53.5533C40.9579 54.647 41.1497 55.5774 41.5332 56.3445C41.9238 57.1115 42.4672 57.6974 43.1632 58.1023C43.8592 58.5 44.6724 58.6989 45.6028 58.6989C46.2065 58.6989 46.7569 58.6136 47.2541 58.4432C47.7512 58.2656 48.1809 58.0028 48.5431 57.6548C48.9054 57.3068 49.1824 56.8771 49.3741 56.3658L52.389 56.9091C52.1475 57.7969 51.7143 58.5746 51.0893 59.2422C50.4714 59.9027 49.6937 60.4176 48.7562 60.7869C47.8258 61.1491 46.764 61.3303 45.5708 61.3303ZM63.1783 61.3303C61.5661 61.3303 60.1776 60.9858 59.0128 60.2969C57.8551 59.6009 56.9602 58.6243 56.3281 57.3672C55.7031 56.103 55.3906 54.6222 55.3906 52.9247C55.3906 51.2486 55.7031 49.7713 56.3281 48.4929C56.9602 47.2145 57.8409 46.2166 58.9702 45.4993C60.1065 44.782 61.4347 44.4233 62.9545 44.4233C63.8778 44.4233 64.7727 44.576 65.6392 44.8814C66.5057 45.1868 67.2834 45.6662 67.9723 46.3196C68.6612 46.973 69.2045 47.8217 69.6023 48.8658C70 49.9027 70.1989 51.1634 70.1989 52.6477V53.777H57.1911V51.3906H67.0774C67.0774 50.5526 66.907 49.8104 66.5661 49.1641C66.2251 48.5107 65.7457 47.9957 65.1278 47.6193C64.517 47.2429 63.7997 47.0547 62.9759 47.0547C62.081 47.0547 61.2997 47.2749 60.6321 47.7152C59.9716 48.1484 59.4602 48.7166 59.098 49.4197C58.7429 50.1158 58.5653 50.8722 58.5653 51.6889V53.5533C58.5653 54.647 58.7571 55.5774 59.1406 56.3445C59.5312 57.1115 60.0746 57.6974 60.7706 58.1023C61.4666 58.5 62.2798 58.6989 63.2102 58.6989C63.8139 58.6989 64.3643 58.6136 64.8615 58.4432C65.3587 58.2656 65.7884 58.0028 66.1506 57.6548C66.5128 57.3068 66.7898 56.8771 66.9815 56.3658L69.9964 56.9091C69.755 57.7969 69.3217 58.5746 68.6967 59.2422C68.0788 59.9027 67.3011 60.4176 66.3636 60.7869C65.4332 61.1491 64.3714 61.3303 63.1783 61.3303ZM76.9185 39.1818V61H73.7331V39.1818H76.9185Z" fill="#6A3300"/>
</svg>
