<svg width="259" height="349" viewBox="0 0 259 349" fill="none" xmlns="http://www.w3.org/2000/svg">
<rect x="239.509" y="181.625" width="1" height="160" transform="rotate(103.97 239.509 181.625)" fill="black"/>
<rect x="258.447" y="151.964" width="1" height="240" transform="rotate(126.491 258.447 151.964)" fill="black"/>
<rect x="240.002" y="218.789" width="1" height="240" transform="rotate(90.1883 240.002 218.789)" fill="black"/>
<rect x="240.041" y="258" width="1" height="180" transform="rotate(79.5956 240.041 258)" fill="black"/>
<rect x="250.039" y="290" width="1" height="100" transform="rotate(61.6892 250.039 290)" fill="black"/>
<circle cx="153" cy="162" r="8.5" fill="#FED0AB" stroke="black"/>
<circle cx="63" cy="218" r="8.5" fill="white" stroke="black"/>
<circle cx="192" cy="345" r="3.5" fill="white" stroke="black"/>
<circle cx="236" cy="299" r="8.5" fill="#FED0AB" stroke="black"/>
<circle cx="197" cy="243" r="8.5" fill="#E1E8EA" stroke="black"/>
<circle cx="162" cy="41" r="8.5" fill="#E1E8EA" stroke="black"/>
<circle cx="124" cy="195" r="3.5" fill="#E1E8EA" stroke="black"/>
<circle cx="65.0902" cy="9.09004" r="8.5" transform="rotate(0.576106 65.0902 9.09004)" fill="#C8BEFF" stroke="black"/>
<circle cx="213" cy="149" r="3.5" fill="#C8BEFF" stroke="black"/>
</svg>
