<svg width="85" height="85" viewBox="0 0 85 85" fill="none" xmlns="http://www.w3.org/2000/svg">
<path d="M16 38.5857V63.9855C16 64.9868 16.7222 65.7996 17.6126 65.7996H32.1227V36.771H17.6126C16.7222 36.771 16 37.5841 16 38.5857Z" fill="#ae4bff"/>
<path d="M63.4906 33.1426H50.5927V22.2566C50.5927 18.2542 47.7005 15 44.1442 15H39.3069C38.4174 15 37.6953 15.8126 37.6953 16.8137V25.4029L31.459 37.6859C31.317 37.961 31.2461 38.2699 31.2461 38.5857V63.9855C31.2461 64.9869 31.9683 65.7997 32.858 65.7997H58.7346C61.2823 65.7997 63.5973 64.1054 64.6258 61.4892L69.7977 48.3933C69.8914 48.1617 69.94 47.9107 69.94 47.6571V40.3998C69.9401 36.397 67.0474 33.1426 63.4906 33.1426Z" fill="#1034F2" fill-opacity="0.3"/>
</svg>
