<svg width="85" height="85" viewBox="0 0 85 85" fill="none" xmlns="http://www.w3.org/2000/svg">
<g clip-path="url(#clip0_3_1525)">
<path opacity="0.3" d="M47.4013 66.8569H37.8333C37.6158 66.8569 37.4018 66.9126 37.2118 67.0186C37.0219 67.1245 36.8621 67.2773 36.7478 67.4625C36.6336 67.6476 36.5685 67.8588 36.5589 68.0762C36.5492 68.2935 36.5953 68.5097 36.6928 68.7042L37.5501 70.4162C37.971 71.2645 38.6208 71.9782 39.4261 72.4764C40.2314 72.9746 41.1601 73.2376 42.107 73.2356H43.1276C44.0736 73.239 45.0018 72.978 45.8074 72.4821C46.613 71.9862 47.264 71.2751 47.6871 70.429L48.5444 68.7169C48.642 68.5223 48.6881 68.3058 48.6783 68.0883C48.6686 67.8707 48.6033 67.6593 48.4887 67.4741C48.3741 67.2889 48.214 67.1362 48.0237 67.0304C47.8334 66.9246 47.6191 66.8692 47.4013 66.8697V66.8569Z" fill="white"/>
<path opacity="0.3" d="M42.6179 23.4816C43.2946 23.4816 43.9436 23.2128 44.422 22.7343C44.9005 22.2558 45.1694 21.6069 45.1694 20.9302V14.5515C45.1694 13.8748 44.9005 13.2258 44.422 12.7473C43.9436 12.2688 43.2946 12 42.6179 12C41.9412 12 41.2922 12.2688 40.8137 12.7473C40.3352 13.2258 40.0664 13.8748 40.0664 14.5515V20.9302C40.0664 21.6069 40.3352 22.2558 40.8137 22.7343C41.2922 23.2128 41.9412 23.4816 42.6179 23.4816Z" fill="white"/>
<path opacity="0.3" d="M66.07 21.7158C65.5915 21.2375 64.9426 20.9688 64.2661 20.9688C63.5895 20.9688 62.9407 21.2375 62.4622 21.7158L57.9537 26.2268C57.71 26.4622 57.5157 26.7437 57.3819 27.055C57.2482 27.3663 57.1778 27.7011 57.1749 28.0399C57.172 28.3786 57.2365 28.7146 57.3648 29.0282C57.4931 29.3418 57.6826 29.6266 57.9221 29.8662C58.1617 30.1058 58.4466 30.2952 58.7601 30.4235C59.0737 30.5518 59.4097 30.6164 59.7484 30.6134C60.0872 30.6105 60.422 30.5402 60.7333 30.4065C61.0446 30.2727 61.3262 30.0784 61.5615 29.8347L66.07 25.3236C66.5483 24.8451 66.817 24.1962 66.817 23.5197C66.817 22.8431 66.5483 22.1943 66.07 21.7158Z" fill="white"/>
<path opacity="0.3" d="M70.6837 42.6177H65.5808C64.9041 42.6177 64.2551 42.8865 63.7766 43.365C63.2981 43.8435 63.0293 44.4925 63.0293 45.1692C63.0293 45.8459 63.2981 46.4949 63.7766 46.9733C64.2551 47.4518 64.9041 47.7207 65.5808 47.7207H70.6837C71.3604 47.7207 72.0094 47.4518 72.4879 46.9733C72.9664 46.4949 73.2352 45.8459 73.2352 45.1692C73.2352 44.4925 72.9664 43.8435 72.4879 43.365C72.0094 42.8865 71.3604 42.6177 70.6837 42.6177Z" fill="white"/>
<path opacity="0.3" d="M27.2833 26.2272L22.7723 21.7162C22.291 21.2514 21.6465 20.9943 20.9775 21.0001C20.3086 21.0059 19.6686 21.2742 19.1956 21.7473C18.7225 22.2204 18.4542 22.8603 18.4483 23.5293C18.4425 24.1983 18.6997 24.8428 19.1645 25.324L23.6755 29.835C24.1567 30.2998 24.8012 30.557 25.4702 30.5511C26.1392 30.5453 26.7791 30.277 27.2522 29.8039C27.7252 29.3309 27.9936 28.6909 27.9994 28.0219C28.0052 27.3529 27.748 26.7084 27.2833 26.2272Z" fill="white"/>
<path opacity="0.3" d="M19.6544 42.6177H14.5515C13.8748 42.6177 13.2258 42.8865 12.7473 43.365C12.2688 43.8435 12 44.4925 12 45.1692C12 45.8459 12.2688 46.4949 12.7473 46.9733C13.2258 47.4518 13.8748 47.7207 14.5515 47.7207H19.6544C20.3311 47.7207 20.9801 47.4518 21.4586 46.9733C21.9371 46.4949 22.2059 45.8459 22.2059 45.1692C22.2059 44.4925 21.9371 43.8435 21.4586 43.365C20.9801 42.8865 20.3311 42.6177 19.6544 42.6177Z" fill="white"/>
<path d="M42.6176 27.3086C39.0917 27.3139 35.6592 28.4427 32.8184 30.5312C29.9777 32.6198 27.8765 35.5593 26.8198 38.9232C25.7632 42.2871 25.8061 45.9001 26.9424 49.2379C28.0787 52.5757 30.2492 55.4645 33.1389 57.4849C33.3082 57.6024 33.4466 57.7591 33.5421 57.9418C33.6376 58.1244 33.6875 58.3275 33.6874 58.5336V60.4778C33.6874 61.1545 33.9562 61.8035 34.4347 62.282C34.9132 62.7604 35.5622 63.0293 36.2389 63.0293H48.9963C49.673 63.0293 50.3219 62.7604 50.8004 62.282C51.2789 61.8035 51.5477 61.1545 51.5477 60.4778V58.531C51.5477 58.3249 51.5975 58.1219 51.6931 57.9392C51.7886 57.7566 51.927 57.5998 52.0963 57.4824C54.9932 55.4662 57.1708 52.5778 58.3118 49.2379C59.4528 45.898 59.4977 42.2811 58.44 38.9139C57.3822 35.5467 55.277 32.6052 52.4311 30.5177C49.5851 28.4303 46.147 27.306 42.6176 27.3086Z" fill="white"/>
</g>
<defs>
<clipPath id="clip0_3_1525">
<rect width="85" height="85" fill="white"/>
</clipPath>
</defs>
</svg>
