<svg width="85" height="85" viewBox="0 0 85 85" fill="none" xmlns="http://www.w3.org/2000/svg">
<g clip-path="url(#clip0_3_1629)">
<path opacity="0.4" d="M34.962 50.6021C23.7243 50.6021 14.126 52.338 14.126 59.2764C14.126 66.2202 23.6632 68.016 34.962 68.016C46.1998 68.016 55.7981 66.28 55.7981 59.3416C55.7981 52.3978 46.2608 50.6021 34.962 50.6021Z" fill="white"/>
<path d="M34.9619 43.9877C42.6156 43.9877 48.7491 37.9811 48.7491 30.4858C48.7491 22.9905 42.6156 16.9839 34.9619 16.9839C27.3111 16.9839 21.1748 22.9905 21.1748 30.4858C21.1748 37.9811 27.3111 43.9877 34.9619 43.9877Z" fill="white"/>
<path d="M54.3094 30.7308C54.3094 34.5478 53.1387 38.1093 51.0859 41.0678C50.8723 41.3721 51.0609 41.7823 51.4326 41.8475C51.9486 41.9317 52.4785 41.9833 53.0194 41.9942C58.4011 42.1327 63.2308 38.7396 64.5651 33.6295C66.543 26.0473 60.7397 19.2393 53.3468 19.2393C52.545 19.2393 51.7766 19.3208 51.0276 19.4702C50.925 19.492 50.814 19.5409 50.7585 19.6278C50.6864 19.7392 50.7391 19.8832 50.8113 19.9782C53.0333 23.0291 54.3094 26.7428 54.3094 30.7308Z" fill="white"/>
<path opacity="0.4" d="M70.2017 51.4857C69.2169 49.4291 66.8395 48.0192 63.2221 47.3264C61.5161 46.9189 56.8945 46.3403 52.5974 46.4218C52.5336 46.4299 52.4975 46.4734 52.492 46.5006C52.4837 46.544 52.5031 46.6092 52.5863 46.6554C54.5726 47.6171 62.2484 51.8008 61.283 60.6246C61.2414 61.0103 61.5549 61.3363 61.946 61.282C63.8352 61.0185 68.6954 59.9943 70.2017 56.8103C71.0367 55.126 71.0367 53.17 70.2017 51.4857Z" fill="white"/>
</g>
<defs>
<clipPath id="clip0_3_1629">
<rect width="85" height="85" fill="white"/>
</clipPath>
</defs>
</svg>
