<svg width="85" height="85" viewBox="0 0 85 85" fill="none" xmlns="http://www.w3.org/2000/svg">
<g clip-path="url(#clip0_3_1624)">
<path opacity="0.4" d="M64.8062 34.9675C64.8125 31.0661 63.7954 27.2312 61.8565 23.8457C59.9176 20.4601 57.1246 17.6424 53.7563 15.6736C50.3881 13.7048 46.5624 12.6538 42.661 12.6256C38.7597 12.5974 34.9191 13.5929 31.5228 15.5128C28.1264 17.4328 25.293 20.2099 23.3053 23.567C21.3177 26.9242 20.2453 30.744 20.1952 34.6451C20.1451 38.5462 21.1191 42.3923 23.0199 45.7994C24.9207 49.2064 27.6819 52.0554 31.0279 54.0619V71.2952C31.0275 71.7998 31.1769 72.2932 31.4571 72.7129C31.7374 73.1326 32.1359 73.4596 32.6022 73.6527C33.0685 73.8457 33.5815 73.8959 34.0764 73.7971C34.5713 73.6983 35.0257 73.4548 35.3821 73.0975L42.0485 66.4285C42.1076 66.3689 42.1778 66.3215 42.2553 66.2892C42.3327 66.2569 42.4158 66.2402 42.4998 66.2402C42.5837 66.2402 42.6668 66.2569 42.7442 66.2892C42.8217 66.3215 42.892 66.3689 42.951 66.4285L49.6174 73.0975C49.9738 73.4548 50.4282 73.6983 50.9231 73.7971C51.418 73.8959 51.9311 73.8457 52.3973 73.6527C52.8636 73.4596 53.2621 73.1326 53.5424 72.7129C53.8226 72.2932 53.972 71.7998 53.9716 71.2952V54.0619C57.2714 52.0843 60.0034 49.2865 61.9019 45.9406C63.8004 42.5947 64.801 38.8145 64.8062 34.9675ZM42.4998 53.45C38.8443 53.45 35.2709 52.366 32.2314 50.3352C29.192 48.3043 26.8231 45.4177 25.4242 42.0405C24.0253 38.6633 23.6593 34.947 24.3724 31.3618C25.0856 27.7765 26.8459 24.4833 29.4307 21.8985C32.0155 19.3136 35.3088 17.5534 38.894 16.8402C42.4793 16.1271 46.1955 16.4931 49.5727 17.892C52.9499 19.2909 55.8365 21.6598 57.8674 24.6992C59.8982 27.7387 60.9822 31.3121 60.9822 34.9675C60.9768 39.8677 59.0278 44.5657 55.5629 48.0307C52.0979 51.4956 47.4 53.4446 42.4998 53.45Z" fill="white"/>
<path d="M42.5 58.8862C55.6809 58.8862 66.3662 48.2009 66.3662 35.02C66.3662 21.8391 55.6809 11.1538 42.5 11.1538C29.319 11.1538 18.6338 21.8391 18.6338 35.02C18.6338 48.2009 29.319 58.8862 42.5 58.8862Z" fill="white"/>
<path d="M52.5665 28.0508L39.3358 41.2815C38.9452 41.672 38.3121 41.672 37.9216 41.2815L32.4341 35.794" stroke="#ae4bff" stroke-width="5" stroke-miterlimit="10" stroke-linecap="round"/>
</g>
<defs>
<clipPath id="clip0_3_1624">
<rect width="85" height="85" fill="white"/>
</clipPath>
</defs>
</svg>
