<svg width="123" height="71" viewBox="0 0 123 71" fill="none" xmlns="http://www.w3.org/2000/svg">
<path d="M4.24178 42.0616C2.44681 35.3627 6.42224 28.477 13.1212 26.6821C13.8533 26.4859 14.6017 26.3564 15.3572 26.2952L23.0897 25.6687C30.7548 25.0478 38.2426 23.0352 45.1861 19.7297C50.4129 17.2414 55.9564 15.4818 61.6615 14.5003L71.8318 12.7506L76.6512 12.0235C84.933 10.7739 93.0099 8.41991 100.666 5.02443C106.417 2.53509 113.037 5.73471 114.659 11.7876L119.988 31.6763C121.265 36.4443 118.122 41.2664 113.244 42.0219C112.704 42.1055 112.173 42.2425 111.659 42.4306L106.319 44.3876C102.786 45.6823 99.1477 46.671 95.4452 47.3427L78.3395 50.4461C72.6624 51.4761 67.0996 53.0582 61.7302 55.1698L55.9169 57.456C50.8453 59.4505 45.4836 60.6087 40.0409 60.8853L32.4908 61.2689C30.5882 61.3656 28.7258 61.8517 27.0188 62.6972C19.1434 66.5979 9.66859 62.3147 7.39398 53.8258L4.24178 42.0616Z" fill="#C8BEFF"/>
<path d="M28.7718 50.394L24.7892 35.5308L29.5958 34.2429C30.59 33.9765 31.5422 33.9158 32.4522 34.0607C33.3672 34.1972 34.2051 34.5162 34.966 35.018C35.7317 35.5112 36.394 36.169 36.9527 36.9913C37.5115 37.8136 37.9376 38.7722 38.231 39.8672C38.5244 40.9622 38.6356 42.0089 38.5647 43.0071C38.4937 44.0053 38.2518 44.9162 37.8388 45.7396C37.4308 46.5546 36.8656 47.2532 36.1432 47.8356C35.4275 48.4162 34.5726 48.8396 33.5784 49.106L28.7718 50.394ZM31.6673 48.6245L29.857 47.5111L32.5273 46.7956C33.2528 46.6012 33.8538 46.2242 34.3302 45.6645C34.8116 45.0963 35.1228 44.3901 35.2638 43.5459C35.403 42.695 35.334 41.7523 35.0568 40.7178C34.7778 39.6765 34.368 38.8323 33.8274 38.1851C33.285 37.5313 32.6651 37.0853 31.9677 36.8474C31.2752 36.6009 30.5663 36.5749 29.8407 36.7693L27.1704 37.4848L28.1815 35.6155L31.6673 48.6245ZM40.6913 33.8619L41.7024 31.9925L43.3522 38.1494L42.4092 37.4517L47.8909 35.9828L48.5389 38.4013L43.0572 39.8701L43.525 38.7943L45.1882 45.0016L43.3779 43.8882L50.6835 41.9307L51.3315 44.3491L42.2927 46.7711L38.3101 31.9079L47.3489 29.486L47.9969 31.9044L40.6913 33.8619ZM58.8896 42.5831C57.8147 42.8711 56.8216 42.9536 55.9103 42.8306C55.0056 42.7058 54.2306 42.3663 53.5853 41.812C52.9449 41.2492 52.4887 40.4606 52.2169 39.4462C52.1881 39.3387 52.162 39.2413 52.1386 39.1539C52.1134 39.0599 52.0864 38.9591 52.0576 38.8516L55.1915 38.0119C55.2185 38.1127 55.2428 38.2034 55.2644 38.284C55.2842 38.3579 55.3076 38.4452 55.3346 38.546C55.52 39.2379 55.857 39.7164 56.3457 39.9815C56.8343 40.2466 57.4615 40.2765 58.2274 40.0713C58.9999 39.8643 59.562 39.5841 59.9137 39.2307C60.2636 38.8705 60.363 38.4083 60.2118 37.844C60.1056 37.4476 59.8541 37.1406 59.4574 36.9229C59.0673 36.7034 58.5721 36.5481 57.9717 36.457C57.3762 36.3573 56.7079 36.2952 55.9669 36.2705C55.1582 36.2352 54.3835 36.1116 53.6427 35.8997C52.9019 35.6878 52.2575 35.3384 51.7095 34.8517C51.1681 34.3631 50.7814 33.6855 50.5492 32.8189C50.3152 31.9456 50.348 31.1412 50.6478 30.4057C50.9457 29.6634 51.4512 29.024 52.1642 28.4873C52.8754 27.9439 53.7348 27.5372 54.7425 27.2672C55.7972 26.9846 56.7717 26.8999 57.6661 27.0131C58.5653 27.1177 59.3307 27.4347 59.9621 27.9639C60.5984 28.4846 61.0462 29.2286 61.3054 30.196C61.3342 30.3035 61.3612 30.4043 61.3864 30.4983C61.4098 30.5856 61.4368 30.6864 61.4674 30.8006L58.3436 31.6376C58.3238 31.5637 58.3031 31.4865 58.2815 31.4059C58.2599 31.3253 58.2392 31.248 58.2194 31.1741C58.0448 30.5225 57.7293 30.0706 57.2729 29.8185C56.8233 29.5645 56.2156 29.5402 55.4497 29.7454C54.7108 29.9434 54.1724 30.2317 53.8346 30.6102C53.5035 30.9869 53.4127 31.454 53.5621 32.0116C53.6701 32.4147 53.9063 32.7186 54.2708 32.9233C54.642 33.1263 55.1126 33.2702 55.6825 33.3551C56.2525 33.44 56.893 33.5059 57.604 33.553C58.5736 33.6244 59.4379 33.7601 60.1971 33.9598C60.9611 34.1511 61.6001 34.4803 62.1141 34.9474C62.6263 35.4078 62.9984 36.0713 63.2306 36.9379C63.4683 37.8246 63.4424 38.6416 63.1529 39.3887C62.8635 40.1359 62.3498 40.7848 61.6117 41.3353C60.8785 41.8774 59.9712 42.2933 58.8896 42.5831ZM66.343 40.3268L62.3604 25.4636L65.4439 24.6374L69.4264 39.5006L66.343 40.3268ZM77.9132 37.4858C76.7376 37.8008 75.5878 37.7957 74.4638 37.4704C73.3447 37.1367 72.3485 36.482 71.4751 35.5064C70.6066 34.5223 69.9509 33.2039 69.5081 31.5514C69.0671 29.9055 68.9926 28.4314 69.2844 27.1292C69.5763 25.827 70.146 24.7419 70.9935 23.874C71.8476 23.0043 72.8995 22.4021 74.149 22.0673C75.1903 21.7883 76.1153 21.7204 76.9241 21.8637C77.7396 22.0052 78.4426 22.2776 79.0331 22.681C79.6304 23.0826 80.1114 23.5477 80.4762 24.0764C80.8393 24.5983 81.0865 25.1045 81.2179 25.5949C81.2233 25.615 81.2287 25.6352 81.2341 25.6553C81.2395 25.6755 81.2449 25.6956 81.2503 25.7158L78.2072 26.5312C78.2018 26.5111 78.1964 26.4909 78.191 26.4707C78.1856 26.4506 78.1802 26.4304 78.1748 26.4103C78.092 26.1013 77.953 25.8109 77.7578 25.5392C77.5607 25.2608 77.3156 25.0313 77.0224 24.8506C76.7359 24.6682 76.405 24.5481 76.0295 24.4903C75.6607 24.4307 75.258 24.4594 74.8213 24.5764C74.2302 24.7348 73.7109 25.0539 73.2634 25.5338C72.816 26.0137 72.5227 26.6791 72.3835 27.53C72.2425 28.3742 72.3421 29.4312 72.6823 30.7008C72.9415 31.6682 73.2534 32.4559 73.6179 33.0638C73.9891 33.6699 74.389 34.128 74.8177 34.4379C75.2445 34.7412 75.6862 34.9252 76.1428 34.9901C76.6061 35.0531 77.0595 35.0253 77.5029 34.9065C78.1142 34.7427 78.5977 34.5051 78.9535 34.1938C79.3142 33.8739 79.5716 33.5313 79.7258 33.166C79.8799 32.8007 79.9509 32.4613 79.9389 32.1477L79.6797 31.1803L76.7373 31.9687L76.1325 29.7116L81.846 28.1806L83.844 35.6374L82.2015 36.0775L81.4793 34.5106C81.4597 34.6526 81.3905 34.8512 81.2717 35.1062C81.1528 35.3613 80.9609 35.6395 80.6961 35.9409C80.4361 36.2337 80.0765 36.5173 79.6172 36.7916C79.1664 37.0708 78.5984 37.3022 77.9132 37.4858ZM89.4119 34.1455L86.3586 34.9636L82.3761 20.1005L87.233 18.799L95.8911 31.1998L95.4022 31.4712L91.6869 17.6056L94.7301 16.7902L98.7127 31.6534L93.8255 32.9629L85.1782 20.6024L85.7074 20.3202L89.4119 34.1455Z" fill="black"/>
</svg>
