<svg width="199" height="121" viewBox="0 0 199 121" fill="none" xmlns="http://www.w3.org/2000/svg">
<path d="M12.4646 14.7363C15.9065 6.59768 25.2945 2.79025 33.4331 6.23221L40.241 9.11136L68.6335 25.4704C69.7731 26.127 70.9893 26.6406 72.2546 26.9996L102.062 35.4555C103.014 35.7255 103.938 36.0832 104.824 36.5239L132.544 50.3191L157.722 63.2911C158.58 63.7334 159.477 64.097 160.401 64.3776L179.499 70.1772L181.907 70.9242C190.944 73.7288 195.587 83.7219 191.901 92.4376L186.764 104.585C183.158 113.11 173.071 116.779 164.831 112.561L145.285 105.652L96.7366 81.863L61.0563 69.8848C59.9453 69.5118 58.8787 69.0179 57.8756 68.412L34.3257 54.1865C33.0561 53.4196 31.686 52.833 30.2548 52.4434L17.666 49.0171C8.31774 46.4728 3.35781 36.2697 7.13153 27.3465L12.4646 14.7363Z" fill="#FED0AB"/>
<path d="M20.3052 32.709L27.6674 16.6128L32.8727 18.9936C33.9494 19.4861 34.8381 20.1301 35.5387 20.9256C36.2499 21.7171 36.7589 22.6141 37.0658 23.6166C37.3832 24.6151 37.4883 25.6836 37.381 26.8222C37.2737 27.9607 36.9489 29.1229 36.4065 30.3087C35.8641 31.4946 35.1956 32.504 34.4012 33.337C33.6067 34.1701 32.7246 34.8003 31.755 35.2277C30.796 35.6512 29.7828 35.8563 28.7156 35.8432C27.6556 35.8335 26.5872 35.5823 25.5105 35.0899L20.3052 32.709ZM24.1691 33.2623L23.3801 30.9485L26.2719 32.2712C27.0576 32.6305 27.8668 32.7367 28.6994 32.5897C29.5426 32.4387 30.336 32.0407 31.0797 31.3956C31.8268 30.7432 32.4565 29.8568 32.969 28.7365C33.4847 27.6088 33.7401 26.56 33.7351 25.5901C33.7335 24.6128 33.5107 23.7632 33.0668 23.0411C32.6335 22.3151 32.024 21.7724 31.2383 21.413L28.3464 20.0903L30.6129 19.174L24.1691 33.2623ZM42.989 26.7877L45.2555 25.8714L42.2058 32.539L41.8812 31.2293L47.8177 33.9446L46.6198 36.5636L40.6833 33.8484L41.8864 33.2374L38.8117 39.9597L38.0227 37.6458L45.9344 41.2645L44.7365 43.8835L34.9478 39.4063L42.31 23.3101L52.0987 27.7873L50.9007 30.4064L42.989 26.7877ZM50.6321 46.6197L54.0261 28.6689L57.7692 30.3809L54.1876 45.7124L54.0348 45.6425L63.2692 32.8966L67.0231 34.6136L55.6956 48.9357L50.6321 46.6197ZM69.5461 38.9345L71.8126 38.0182L68.7629 44.6859L68.4382 43.3762L74.3747 46.0914L73.1768 48.7105L67.2403 45.9952L68.4434 45.3843L65.3688 52.1065L64.5797 49.7926L72.4914 53.4113L71.2935 56.0304L61.5048 51.5532L68.867 35.457L78.6557 39.9342L77.4578 42.5532L69.5461 38.9345ZM73.9521 57.2464L81.3143 41.1502L84.7081 42.7025L77.8101 57.7838L77.081 55.339L84.5998 58.778L83.337 61.5389L73.9521 57.2464ZM90.979 65.351C89.9751 64.8918 89.1198 64.2807 88.4131 63.5176C87.7065 62.7545 87.1835 61.8688 86.8443 60.8603C86.505 59.8518 86.3825 58.7445 86.4767 57.5384C86.5742 56.325 86.9291 55.049 87.5414 53.7104C88.157 52.3645 88.8849 51.2635 89.7251 50.4074C90.5759 49.5474 91.4921 48.9195 92.4736 48.5239C93.455 48.1283 94.4638 47.9519 95.4999 47.9948C96.5359 48.0376 97.5596 48.2903 98.5708 48.7528C99.5748 49.212 100.432 49.8195 101.142 50.5753C101.859 51.3344 102.389 52.2146 102.731 53.2158C103.074 54.217 103.195 55.319 103.093 56.5218C102.995 57.7173 102.638 58.988 102.023 60.3339C101.41 61.6725 100.677 62.7755 99.8229 63.6428C98.9794 64.5061 98.0616 65.1376 97.0695 65.5371C96.0847 65.94 95.0689 66.122 94.0223 66.0831C92.9829 66.0476 91.9685 65.8035 90.979 65.351ZM92.2219 62.6337C92.8985 62.9432 93.609 63.0439 94.3534 62.9357C95.1051 62.8309 95.8436 62.4473 96.5688 61.7849C97.2974 61.1153 97.9694 60.1075 98.585 58.7616C99.204 57.4084 99.5215 56.2429 99.5377 55.265C99.5612 54.2905 99.3671 53.4936 98.9554 52.8742C98.5471 52.2476 98.0046 51.7795 97.328 51.4701C96.6514 51.1606 95.9389 51.0546 95.1905 51.1522C94.4528 51.2458 93.7229 51.6201 93.001 52.2752C92.2791 52.9303 91.6087 53.9345 90.9898 55.2876C90.3709 56.6408 90.048 57.8083 90.0212 58.7901C89.9944 59.7719 90.1835 60.5798 90.5885 61.2137C91.0008 61.8509 91.5453 62.3243 92.2219 62.6337ZM103.967 70.9748L100.573 69.4225L107.935 53.3263L113.446 55.8469C114.676 56.4093 115.617 57.1302 116.271 58.0096C116.935 58.8851 117.309 59.8351 117.395 60.8596C117.491 61.8801 117.306 62.8996 116.841 63.9181C116.378 64.9293 115.717 65.7488 114.858 66.3764C114.01 67.0001 113.033 67.3669 111.927 67.4768C110.825 67.5795 109.662 67.3513 108.44 66.7923L106.323 65.824L103.967 70.9748ZM106.802 64.7764L105.993 62.5062L109.278 64.0086C109.845 64.2681 110.391 64.3816 110.917 64.3491C111.445 64.3093 111.925 64.1244 112.358 63.7943C112.794 63.457 113.153 62.9792 113.436 62.3608C113.722 61.7352 113.842 61.1654 113.795 60.6515C113.76 60.1337 113.576 59.68 113.243 59.2906C112.922 58.8972 112.47 58.5674 111.888 58.3012L108.603 56.7988L110.87 55.8825L106.802 64.7764ZM132.907 64.7481L138.636 67.3685L131.274 83.4647L128.066 81.9973L134.515 67.8981L134.56 67.9717L124.988 80.5897L120.558 78.5632L123.804 63.0125L123.885 63.0097L117.426 77.1307L114.207 75.6583L121.569 59.5621L127.298 62.1825L123.605 78.0172L123.321 77.8875L132.907 64.7481ZM142.12 72.1287L144.386 71.2125L141.337 77.8801L141.012 76.5704L146.948 79.2857L145.75 81.9047L139.814 79.1894L141.017 78.5785L137.942 85.3007L137.153 82.9869L145.065 86.6056L143.867 89.2246L134.078 84.7474L141.441 68.6512L151.229 73.1284L150.031 75.7475L142.12 72.1287ZM149.832 91.953L146.526 90.4406L153.888 74.3444L159.148 76.7502L157.736 94.0899L157.103 93.9723L163.971 78.9564L167.267 80.4638L159.905 96.56L154.612 94.1392L156.004 76.8431L156.68 76.9808L149.832 91.953ZM179.423 89.1907L174.108 86.7599L176.2 85.7638L169.297 100.856L165.925 99.3137L172.828 84.2215L173.486 86.4754L168.139 84.0297L169.337 81.4106L180.621 86.5717L179.423 89.1907Z" fill="black"/>
</svg>
