<svg width="165" height="82" viewBox="0 0 165 82" fill="none" xmlns="http://www.w3.org/2000/svg">
<path d="M5.12456 59.7662C2.40096 49.6016 8.39581 39.0145 18.5604 36.2909L32.4741 34.4573C41.885 33.2171 51.0919 30.7445 59.858 27.1032L62.6793 25.9312C69.2733 23.1921 76.1222 21.1121 83.1258 19.7216L98.528 16.6637L112.086 14.1813C118.942 12.9259 125.661 11.0113 132.149 8.46414L138.641 5.91552C146.847 2.75477 155.984 7.40351 158.26 15.8981L161.409 27.6506C163.237 34.4752 158.864 41.411 151.918 42.7031C151.353 42.8082 150.796 42.9535 150.251 43.1377L135.069 48.2732L91.9221 57.1344L72.3588 64.1234C65.2685 66.6564 57.9058 68.3498 50.4214 69.169L39.2497 70.3917C37.1844 70.6177 35.1641 71.1488 33.2547 71.9675L31.5079 72.7166C20.666 77.3656 8.17775 71.1609 5.12456 59.7662Z" fill="purple"/>
<path d="M34.3457 44.0366L39.636 42.6191L43.6186 57.4822L40.656 58.276L37.1675 45.2569L37.2388 45.281L37.8144 59.0375L33.7232 60.1337L27.285 47.9157L27.3373 47.8693L30.8312 60.9086L27.8586 61.7051L23.876 46.8419L29.1663 45.4244L35.4626 58.08L35.2006 58.1502L34.3457 44.0366ZM45.4739 56.9851L45.1942 41.1082L50.1419 39.7824L57.8179 53.6775L54.6135 54.5361L48.1733 42.3511L48.1935 42.3457L48.6783 56.1265L45.4739 56.9851ZM47.2108 52.826L46.5574 50.3875L53.6111 48.4974L54.2645 50.936L47.2108 52.826ZM59.5519 53.2129L55.5693 38.3497L61.5952 36.7351C63.1537 36.3175 64.4113 36.3621 65.368 36.869C66.3295 37.3674 66.9885 38.2816 67.3449 39.6118C67.5501 40.3776 67.5778 41.0722 67.428 41.6955C67.2832 42.3104 67.0354 42.8232 66.6846 43.234C66.3406 43.6429 65.9749 43.9173 65.5876 44.0571C66.0045 43.9742 66.4187 43.9748 66.8301 44.059C67.2464 44.1347 67.6234 44.3324 67.9611 44.6524C68.2988 44.9723 68.5541 45.4547 68.7269 46.0996C68.8547 46.5766 68.9807 47.0468 69.1049 47.5103C69.2291 47.9739 69.356 48.4475 69.4856 48.9311C69.5738 49.2603 69.6792 49.5597 69.8018 49.8292C69.9294 50.0903 70.0597 50.2677 70.1929 50.3617L67.0591 51.2014C66.9357 51.0904 66.8112 50.9078 66.6854 50.6535C66.5579 50.3924 66.45 50.0973 66.3618 49.7682C66.2466 49.3382 66.1368 48.9284 66.0324 48.5388C65.9262 48.1425 65.8155 47.7293 65.7003 47.2994C65.5437 46.7149 65.272 46.3053 64.885 46.0706C64.4963 45.8291 63.9695 45.7975 63.3044 45.9757L60.2209 46.8019L60.79 45.5802L62.6152 52.3921L59.5519 53.2129ZM60.7144 45.2981L59.5729 44.3835L62.6967 43.5465C63.0998 43.4385 63.4349 43.2515 63.702 42.9855C63.9691 42.7195 64.1484 42.3943 64.2398 42.0098C64.3379 41.6235 64.3266 41.2053 64.206 40.7552C64.0368 40.1238 63.714 39.6847 63.2374 39.4379C62.7676 39.1894 62.1901 39.157 61.5049 39.3406L58.3711 40.1803L59.0053 38.9195L60.7144 45.2981ZM76.0227 41.0666L75.4735 38.6541L83.9919 46.6642L80.5658 47.5822L74.3728 41.5195L75.8221 41.3256L74.261 45.2539L74.0066 43.2161L75.5375 48.9296L72.4036 49.7693L68.4211 34.9061L71.5549 34.0664L73.6232 41.7852L72.9523 41.6193L76.4018 32.7677L79.707 31.8821L76.0227 41.0666ZM84.1067 33.2952L85.1178 31.4259L86.7676 37.5827L85.8246 36.885L91.3063 35.4162L91.9543 37.8346L86.4726 39.3034L86.9404 38.2276L88.6036 44.4349L86.7932 43.3216L94.0989 41.364L94.7469 43.7824L85.7081 46.2044L81.7255 31.3412L90.7643 28.9193L91.4123 31.3377L84.1067 33.2952ZM103.732 28.0365L98.825 29.3515L99.6749 27.5253L103.409 41.4614L100.295 42.2957L96.5612 28.3596L98.2506 29.5054L93.313 30.8284L92.665 28.41L103.084 25.6181L103.732 28.0365ZM108.971 39.9711L104.989 25.1079L108.072 24.2817L112.055 39.1449L108.971 39.9711ZM117.574 37.6658L114.521 38.4839L110.539 23.6208L115.396 22.3193L124.054 34.7201L123.565 34.9915L119.849 21.1259L122.893 20.3105L126.875 35.1737L121.988 36.4832L113.341 24.1228L113.87 23.8406L117.574 37.6658ZM135.361 33.1591C134.186 33.4741 133.036 33.469 131.912 33.1437C130.793 32.81 129.797 32.1553 128.923 31.1797C128.055 30.1956 127.399 28.8772 126.956 27.2247C126.515 25.5788 126.441 24.1047 126.732 22.8025C127.024 21.5003 127.594 20.4152 128.441 19.5473C129.296 18.6776 130.347 18.0754 131.597 17.7406C132.638 17.4616 133.563 17.3937 134.372 17.537C135.188 17.6785 135.891 17.9509 136.481 18.3543C137.078 18.7559 137.559 19.221 137.924 19.7497C138.287 20.2716 138.535 20.7778 138.666 21.2682C138.671 21.2883 138.677 21.3085 138.682 21.3286C138.688 21.3488 138.693 21.3689 138.698 21.3891L135.655 22.2045C135.65 22.1844 135.644 22.1642 135.639 22.144C135.634 22.1239 135.628 22.1037 135.623 22.0836C135.54 21.7746 135.401 21.4842 135.206 21.2125C135.009 20.9341 134.764 20.7046 134.47 20.5239C134.184 20.3415 133.853 20.2214 133.477 20.1636C133.109 20.104 132.706 20.1327 132.269 20.2497C131.678 20.4081 131.159 20.7272 130.711 21.2071C130.264 21.687 129.971 22.3524 129.831 23.2033C129.69 24.0475 129.79 25.1045 130.13 26.3741C130.39 27.3415 130.701 28.1292 131.066 28.7371C131.437 29.3432 131.837 29.8013 132.266 30.1112C132.693 30.4145 133.134 30.5985 133.591 30.6634C134.054 30.7264 134.507 30.6986 134.951 30.5798C135.562 30.416 136.046 30.1784 136.402 29.8671C136.762 29.5472 137.02 29.2046 137.174 28.8393C137.328 28.474 137.399 28.1346 137.387 27.821L137.128 26.8536L134.185 27.642L133.58 25.3849L139.294 23.8539L141.292 31.3107L139.65 31.7508L138.927 30.1839C138.908 30.3259 138.839 30.5245 138.72 30.7795C138.601 31.0346 138.409 31.3128 138.144 31.6142C137.884 31.907 137.525 32.1906 137.065 32.4649C136.614 32.7441 136.046 32.9755 135.361 33.1591Z" fill="black"/>
</svg>
